<svg xmlns="http://www.w3.org/2000/svg" viewBox="0 0 960 330" role="img" aria-label="A pseudo-label precision · trailing 10-round mean"><rect width="100%" height="100%" fill="white"/><g font-family="Segoe UI,Arial,sans-serif" font-size="13" fill="#26333e"><text x="72" y="22" font-size="16">A pseudo-label precision · trailing 10-round mean</text><line x1="72" x2="936" y1="280.0" y2="280.0" stroke="#e0e5e9"/><text x="63" y="284.0" text-anchor="end">68.47</text><line x1="72" x2="936" y1="220.50000000000003" y2="220.50000000000003" stroke="#e0e5e9"/><text x="63" y="224.50000000000003" text-anchor="end">75.43</text><line x1="72" x2="936" y1="161.00000000000006" y2="161.00000000000006" stroke="#e0e5e9"/><text x="63" y="165.00000000000006" text-anchor="end">82.39</text><line x1="72" x2="936" y1="101.49999999999997" y2="101.49999999999997" stroke="#e0e5e9"/><text x="63" y="105.49999999999997" text-anchor="end">89.35</text><line x1="72" x2="936" y1="42.0" y2="42.0" stroke="#e0e5e9"/><text x="63" y="46.0" text-anchor="end">96.31</text><text x="72.0" y="302" text-anchor="middle">91</text><text x="253.89473684210526" y="302" text-anchor="middle">135</text><text x="522.6028708133971" y="302" text-anchor="middle">200</text><text x="729.3014354066985" y="302" text-anchor="middle">250</text><text x="936.0" y="302" text-anchor="middle">300</text><line x1="253.89473684210526" x2="253.89473684210526" y1="42" y2="280" stroke="#aab3ba" stroke-dasharray="4 5"/><path d="M72.00,261.85 L76.13,252.60 L80.27,250.37 L84.40,250.95 L88.54,248.77 L92.67,249.34 L96.80,240.76 L100.94,245.20 L105.07,236.71 L109.21,236.68 L113.34,230.37 L117.47,231.75 L121.61,230.50 L125.74,226.57 L129.88,233.51 L134.01,233.40 L138.14,238.40 L142.28,233.05 L146.41,227.94 L150.55,234.91 L154.68,235.55 L158.81,232.70 L162.95,229.99 L167.08,226.93 L171.22,216.76 L175.35,221.22 L179.48,219.73 L183.62,225.89 L187.75,233.38 L191.89,232.51 L196.02,229.46 L200.15,231.25 L204.29,229.59 L208.42,239.60 L212.56,237.94 L216.69,233.66 L220.82,233.00 L224.96,227.13 L229.09,225.59 L233.22,220.16 L237.36,226.14 L241.49,224.89 L245.63,224.36 L249.76,215.31 L253.89,218.31 L258.03,214.91 L262.16,215.24 L266.30,210.39 L270.43,207.06 L274.56,200.32 L278.70,192.50 L282.83,187.28 L286.97,192.47 L291.10,193.60 L295.23,191.65 L299.37,193.68 L303.50,194.04 L307.64,195.00 L311.77,194.41 L315.90,194.57 L320.04,194.65 L324.17,189.97 L328.31,182.54 L332.44,179.55 L336.57,181.05 L340.71,180.56 L344.84,181.15 L348.98,179.62 L353.11,183.93 L357.24,187.17 L361.38,189.23 L365.51,199.93 L369.65,205.98 L373.78,205.10 L377.91,202.27 L382.05,200.99 L386.18,195.66 L390.32,195.24 L394.45,190.66 L398.58,193.71 L402.72,187.29 L406.85,181.21 L410.99,179.66 L415.12,187.73 L419.25,190.00 L423.39,190.55 L427.52,193.82 L431.66,193.46 L435.79,199.58 L439.92,193.73 L444.06,193.57 L448.19,196.17 L452.33,195.17 L456.46,187.55 L460.59,185.78 L464.73,186.98 L468.86,184.52 L473.00,188.77 L477.13,188.54 L481.26,191.03 L485.40,199.41 L489.53,193.38 L493.67,195.09 L497.80,196.16 L501.93,197.59 L506.07,193.25 L510.20,190.09 L514.33,188.92 L518.47,185.66 L522.60,186.04 L526.74,183.09 L530.87,187.03 L535.00,183.60 L539.14,181.97 L543.27,182.68 L547.41,188.07 L551.54,190.33 L555.67,185.62 L559.81,185.19 L563.94,184.24 L568.08,187.35 L572.21,184.43 L576.34,184.59 L580.48,183.48 L584.61,183.28 L588.75,179.36 L592.88,178.62 L597.01,181.73 L601.15,176.48 L605.28,175.60 L609.42,165.61 L613.55,170.04 L617.68,169.53 L621.82,169.12 L625.95,166.64 L630.09,162.69 L634.22,163.20 L638.35,161.96 L642.49,163.18 L646.62,161.58 L650.76,162.20 L654.89,156.41 L659.02,154.91 L663.16,152.33 L667.29,148.65 L671.43,151.21 L675.56,148.67 L679.69,145.30 L683.83,144.88 L687.96,148.16 L692.10,146.90 L696.23,146.07 L700.36,145.03 L704.50,147.44 L708.63,145.90 L712.77,146.68 L716.90,143.19 L721.03,145.19 L725.17,141.72 L729.30,133.74 L733.44,136.01 L737.57,132.76 L741.70,131.75 L745.84,127.39 L749.97,127.95 L754.11,124.47 L758.24,124.97 L762.37,124.03 L766.51,123.01 L770.64,124.36 L774.78,122.13 L778.91,122.68 L783.04,120.14 L787.18,119.63 L791.31,116.94 L795.44,113.90 L799.58,111.16 L803.71,106.16 L807.85,105.63 L811.98,102.07 L816.11,98.32 L820.25,97.74 L824.38,97.08 L828.52,94.90 L832.65,94.02 L836.78,90.90 L840.92,88.96 L845.05,87.15 L849.19,85.79 L853.32,85.70 L857.45,84.95 L861.59,84.91 L865.72,82.47 L869.86,81.21 L873.99,79.57 L878.12,79.36 L882.26,80.39 L886.39,79.63 L890.53,79.50 L894.66,78.61 L898.79,79.13 L902.93,75.72 L907.06,75.48 L911.20,74.58 L915.33,73.43 L919.46,71.57 L923.60,70.36 L927.73,70.26 L931.87,68.73 L936.00,68.73" fill="none" stroke="#67727c" stroke-width="2"/><path d="M72.00,259.76 L76.13,250.29 L80.27,246.88 L84.40,247.32 L88.54,246.03 L92.67,247.57 L96.80,239.00 L100.94,242.56 L105.07,233.96 L109.21,237.14 L113.34,230.22 L117.47,231.66 L121.61,231.07 L125.74,226.36 L129.88,233.05 L134.01,233.31 L138.14,238.78 L142.28,235.36 L146.41,231.57 L150.55,237.84 L154.68,238.13 L158.81,237.28 L162.95,234.13 L167.08,232.24 L171.22,221.79 L175.35,225.13 L179.48,222.39 L183.62,226.65 L187.75,232.99 L191.89,233.83 L196.02,233.24 L200.15,233.48 L204.29,233.24 L208.42,242.26 L212.56,241.71 L216.69,239.61 L220.82,242.01 L224.96,240.40 L229.09,240.14 L233.22,233.59 L237.36,238.22 L241.49,237.58 L245.63,237.75 L249.76,227.53 L253.89,229.09 L258.03,224.90 L262.16,225.38 L266.30,218.47 L270.43,214.35 L274.56,208.11 L278.70,201.22 L282.83,196.51 L286.97,200.28 L291.10,202.39 L295.23,202.76 L299.37,205.32 L303.50,203.83 L307.64,203.46 L311.77,202.25 L315.90,200.62 L320.04,199.31 L324.17,194.07 L328.31,185.77 L332.44,183.05 L336.57,183.10 L340.71,182.21 L344.84,180.67 L348.98,179.27 L353.11,183.77 L357.24,186.53 L361.38,188.49 L365.51,198.76 L369.65,205.37 L373.78,205.15 L377.91,202.88 L382.05,200.94 L386.18,196.56 L390.32,197.67 L394.45,195.24 L398.58,200.58 L402.72,194.37 L406.85,189.58 L410.99,189.87 L415.12,197.04 L419.25,199.33 L423.39,200.84 L427.52,205.47 L431.66,202.96 L435.79,206.96 L439.92,199.58 L444.06,198.80 L448.19,200.01 L452.33,197.53 L456.46,190.14 L460.59,187.48 L464.73,188.80 L468.86,185.59 L473.00,190.14 L477.13,190.08 L481.26,192.19 L485.40,200.87 L489.53,194.74 L493.67,195.90 L497.80,197.15 L501.93,199.29 L506.07,193.80 L510.20,190.61 L514.33,189.61 L518.47,186.34 L522.60,187.01 L526.74,184.25 L530.87,188.38 L535.00,186.96 L539.14,184.10 L543.27,184.25 L547.41,193.09 L551.54,196.91 L555.67,192.82 L559.81,191.71 L563.94,191.70 L568.08,194.76 L572.21,192.29 L576.34,190.72 L580.48,190.42 L584.61,189.74 L588.75,182.19 L592.88,180.40 L597.01,183.13 L601.15,178.55 L605.28,177.04 L609.42,167.31 L613.55,169.88 L617.68,169.68 L621.82,169.44 L625.95,167.62 L630.09,163.80 L634.22,164.02 L638.35,162.16 L642.49,164.10 L646.62,162.17 L650.76,161.79 L654.89,157.81 L659.02,155.17 L663.16,151.95 L667.29,147.48 L671.43,149.35 L675.56,146.43 L679.69,142.91 L683.83,140.87 L687.96,142.25 L692.10,140.98 L696.23,139.04 L700.36,138.01 L704.50,140.94 L708.63,140.38 L712.77,140.64 L716.90,136.92 L721.03,138.64 L725.17,135.96 L729.30,129.69 L733.44,131.67 L737.57,128.12 L741.70,126.46 L745.84,120.92 L749.97,119.55 L754.11,116.75 L758.24,116.58 L762.37,115.22 L766.51,114.24 L770.64,115.55 L774.78,113.20 L778.91,114.24 L783.04,112.00 L787.18,111.38 L791.31,109.70 L795.44,106.58 L799.58,104.46 L803.71,100.49 L807.85,99.84 L811.98,96.51 L816.11,93.35 L820.25,92.53 L824.38,92.21 L828.52,90.39 L832.65,89.59 L836.78,86.82 L840.92,85.36 L845.05,83.17 L849.19,81.42 L853.32,80.32 L857.45,79.30 L861.59,78.99 L865.72,76.57 L869.86,75.31 L873.99,73.18 L878.12,72.24 L882.26,72.40 L886.39,71.74 L890.53,71.28 L894.66,70.33 L898.79,70.40 L902.93,67.23 L907.06,66.29 L911.20,65.30 L915.33,64.31 L919.46,63.03 L923.60,61.81 L927.73,61.30 L931.87,60.15 L936.00,60.39" fill="none" stroke="#1267b1" stroke-width="2"/><path d="M72.00,261.25 L76.13,251.37 L80.27,248.40 L84.40,248.25 L88.54,245.78 L92.67,245.80 L96.80,237.31 L100.94,241.64 L105.07,232.80 L109.21,232.37 L113.34,225.52 L117.47,226.42 L121.61,225.57 L125.74,222.02 L129.88,228.19 L134.01,227.88 L138.14,232.32 L142.28,226.55 L146.41,221.86 L150.55,228.77 L154.68,230.36 L158.81,227.61 L162.95,224.83 L167.08,221.13 L171.22,211.42 L175.35,215.28 L179.48,213.66 L183.62,219.65 L187.75,226.74 L191.89,226.78 L196.02,223.43 L200.15,226.00 L204.29,224.58 L208.42,233.79 L212.56,233.00 L216.69,229.57 L220.82,228.09 L224.96,222.63 L229.09,221.77 L233.22,216.27 L237.36,221.97 L241.49,220.24 L245.63,221.14 L249.76,214.05 L253.89,217.10 L258.03,216.44 L262.16,220.13 L266.30,217.41 L270.43,214.96 L274.56,208.38 L278.70,201.60 L282.83,198.95 L286.97,203.52 L291.10,204.25 L295.23,201.60 L299.37,201.93 L303.50,200.49 L307.64,199.32 L311.77,196.86 L315.90,195.26 L320.04,194.03 L324.17,187.23 L328.31,178.94 L332.44,176.25 L336.57,176.07 L340.71,172.57 L344.84,169.93 L348.98,168.98 L353.11,172.75 L357.24,176.70 L361.38,177.29 L365.51,188.29 L369.65,192.88 L373.78,190.70 L377.91,187.95 L382.05,185.46 L386.18,181.50 L390.32,179.44 L394.45,176.55 L398.58,179.18 L402.72,174.15 L406.85,166.83 L410.99,166.13 L415.12,172.97 L419.25,174.98 L423.39,178.85 L427.52,181.40 L431.66,182.13 L435.79,184.71 L439.92,178.84 L444.06,180.03 L448.19,181.75 L452.33,180.89 L456.46,173.92 L460.59,171.95 L464.73,170.15 L468.86,168.51 L473.00,171.89 L477.13,173.26 L481.26,175.11 L485.40,180.41 L489.53,175.56 L493.67,175.04 L497.80,174.64 L501.93,176.24 L506.07,171.66 L510.20,167.72 L514.33,165.39 L518.47,159.57 L522.60,159.19 L526.74,156.15 L530.87,157.54 L535.00,154.56 L539.14,153.50 L543.27,154.30 L547.41,158.93 L551.54,159.46 L555.67,154.01 L559.81,153.66 L563.94,152.46 L568.08,155.38 L572.21,153.42 L576.34,152.79 L580.48,152.01 L584.61,150.15 L588.75,147.17 L592.88,146.25 L597.01,149.10 L601.15,145.06 L605.28,143.38 L609.42,134.45 L613.55,137.58 L617.68,137.42 L621.82,136.71 L625.95,134.28 L630.09,130.99 L634.22,132.17 L638.35,129.90 L642.49,129.84 L646.62,128.92 L650.76,129.08 L654.89,124.52 L659.02,123.83 L663.16,121.12 L667.29,118.16 L671.43,119.89 L675.56,117.94 L679.69,116.32 L683.83,116.79 L687.96,117.52 L692.10,116.46 L696.23,115.37 L700.36,112.87 L704.50,114.04 L708.63,112.98 L712.77,112.86 L716.90,110.42 L721.03,111.68 L725.17,109.12 L729.30,105.13 L733.44,106.97 L737.57,104.71 L741.70,103.73 L745.84,100.51 L749.97,100.21 L754.11,97.41 L758.24,97.30 L762.37,96.64 L766.51,96.08 L770.64,96.47 L774.78,94.79 L778.91,95.30 L783.04,94.40 L787.18,94.36 L791.31,93.32 L795.44,91.84 L799.58,90.42 L803.71,87.28 L807.85,87.29 L811.98,85.38 L816.11,82.82 L820.25,82.96 L824.38,82.82 L828.52,81.58 L832.65,81.36 L836.78,80.40 L840.92,79.93 L845.05,78.91 L849.19,78.47 L853.32,78.29 L857.45,78.42 L861.59,78.94 L865.72,78.31 L869.86,78.42 L873.99,77.69 L878.12,77.13 L882.26,78.59 L886.39,78.73 L890.53,79.11 L894.66,78.84 L898.79,79.69 L902.93,77.75 L907.06,77.38 L911.20,77.07 L915.33,76.99 L919.46,76.82 L923.60,75.74 L927.73,75.87 L931.87,75.25 L936.00,76.37" fill="none" stroke="#bd6421" stroke-width="2"/><text x="480.0" y="324" text-anchor="middle">Communication round</text><text transform="translate(17,165.0) rotate(-90)" text-anchor="middle">Precision (%)</text></g></svg>